<?xml version="1.0" standalone="no"?>
<!DOCTYPE svg PUBLIC "-//W3C//DTD SVG 20010904//EN"
 "http://www.w3.org/TR/2001/REC-SVG-20010904/DTD/svg10.dtd">
<svg version="1.0" xmlns="http://www.w3.org/2000/svg"
 width="360.000000pt" height="360.000000pt" viewBox="0 0 360.000000 360.000000"
 preserveAspectRatio="xMidYMid meet">

<g transform="translate(0.000000,360.000000) scale(0.100000,-0.100000)"
fill="#000000" stroke="none">
<path d="M770 3148 c-11 -18 -25 -47 -30 -64 -9 -25 -23 -37 -70 -58 -33 -15
-60 -31 -60 -36 0 -4 -3 -16 -7 -26 -6 -16 -3 -16 23 3 16 11 51 30 77 41 l48
21 -20 -27 c-22 -32 -28 -68 -14 -101 8 -21 11 -18 23 33 14 58 39 107 40 76
0 -8 -7 -34 -15 -58 -9 -24 -12 -54 -9 -69 l7 -26 13 24 c7 13 13 32 14 41 0
34 32 96 50 101 15 4 19 -3 23 -42 7 -63 17 -102 34 -126 12 -17 13 -8 7 78
-6 87 -5 97 10 91 9 -3 18 0 21 8 7 18 120 12 153 -8 26 -17 27 -16 6 25 -14
28 -21 32 -43 28 -14 -3 -50 2 -79 11 -43 13 -57 23 -74 54 -20 35 -25 38 -65
38 -38 0 -46 -4 -63 -32z"/>
<path d="M1722 2986 c-70 -25 -105 -83 -147 -243 -49 -185 -95 -306 -95 -248
0 12 -4 14 -19 5 -26 -13 -98 -13 -106 1 -12 18 -57 31 -136 39 -43 5 -95 18
-117 29 -41 21 -102 28 -102 13 0 -5 11 -19 25 -32 14 -13 25 -27 25 -32 0
-16 -55 57 -73 96 -14 31 -21 36 -28 25 -6 -10 -9 -3 -9 24 0 41 -29 120 -37
99 -3 -7 2 -31 11 -53 9 -21 16 -66 16 -98 0 -33 9 -88 20 -123 11 -34 21 -83
22 -108 1 -38 2 -36 7 20 l6 65 13 -40 c6 -22 12 -67 13 -100 0 -33 4 -80 9
-105 6 -32 7 -20 3 45 -2 50 0 108 5 130 l9 40 12 -28 c6 -16 11 -45 12 -65 0
-20 5 -46 10 -57 6 -14 8 -4 6 38 -1 31 1 57 6 57 7 0 10 -23 9 -70 -1 -22 15
-90 38 -160 l8 -25 1 25 c1 14 -4 52 -9 85 -6 33 -8 78 -4 99 l6 39 29 -49
c32 -56 39 -125 26 -254 -7 -70 -7 -73 7 -44 7 17 17 74 21 125 6 82 4 101
-14 147 -12 29 -21 63 -21 75 0 22 1 22 20 -3 30 -39 41 -112 34 -224 -5 -86
-3 -111 15 -166 11 -36 21 -79 21 -97 0 -17 4 -34 8 -37 4 -2 5 21 1 52 -10
82 -11 300 0 306 11 7 21 -52 22 -134 0 -46 3 -59 9 -45 5 11 7 58 4 105 -4
83 -4 84 11 52 9 -19 23 -80 31 -135 8 -56 19 -127 24 -158 6 -30 10 -74 10
-96 0 -23 9 -62 20 -88 11 -26 20 -59 20 -73 0 -15 8 -49 19 -77 10 -27 22
-81 25 -120 4 -38 10 -79 13 -90 4 -15 2 -17 -7 -9 -6 6 -16 44 -21 85 -6 41
-18 86 -27 102 l-17 28 -7 -23 c-6 -23 -6 -23 -8 2 -1 14 -10 50 -21 80 l-19
55 6 -110 6 -110 -25 36 c-27 38 -42 84 -52 164 -13 102 -23 76 -18 -46 5
-126 7 -132 55 -191 11 -15 29 -62 39 -105 13 -61 18 -70 19 -43 2 33 3 31 21
-25 10 -33 22 -100 25 -150 5 -73 12 -99 35 -141 16 -28 40 -91 53 -140 28
-101 33 -92 11 21 -8 42 -25 93 -37 113 -20 32 -23 51 -24 137 0 55 -4 132 -7
170 -6 69 -6 69 7 30 8 -22 15 -65 15 -95 2 -99 28 -229 54 -269 27 -39 63
-143 77 -219 l9 -47 -3 60 c-2 33 -20 109 -39 168 -33 102 -35 112 -25 173 7
47 6 74 -2 97 -6 18 -15 102 -19 187 -9 189 -27 243 -24 72 l2 -117 -13 95
c-7 52 -21 121 -31 152 -17 52 -17 67 -6 150 9 69 10 110 2 158 -6 36 -11 95
-11 132 0 37 -5 79 -11 94 -10 28 5 124 20 124 3 0 15 -37 26 -82 l20 -83 5
55 c3 38 7 49 13 37 10 -27 9 -93 -5 -158 -10 -52 -10 -62 7 -93 17 -31 17
-38 5 -78 l-14 -43 -7 40 c-5 35 -6 33 -8 -24 -1 -49 4 -71 20 -97 11 -19 18
-38 15 -43 -9 -14 12 -63 41 -93 40 -42 54 -114 42 -210 -5 -44 -8 -82 -6 -85
3 -2 12 22 21 54 l16 58 -5 -80 c-3 -60 1 -98 16 -150 14 -50 18 -59 15 -30
-2 22 -1 121 3 220 6 135 4 186 -5 205 -7 14 -17 41 -22 60 l-10 35 -1 -40
c-1 -30 -4 -36 -11 -25 -5 8 -10 58 -10 110 0 75 -6 110 -25 165 -27 75 -31
111 -15 135 8 12 10 13 10 1 0 -8 7 -23 16 -32 9 -10 17 -38 18 -62 1 -23 6
-49 11 -57 5 -8 14 -39 21 -69 13 -56 13 -56 7 34 -3 51 -12 103 -21 120 -9
18 -15 53 -15 85 1 30 -3 72 -8 92 -8 30 -6 44 9 72 12 23 17 46 14 68 -5 31
-6 32 -12 8 -6 -25 -6 -25 -12 5 -4 17 -10 39 -14 49 -6 15 -4 17 6 11 11 -7
12 2 7 43 -3 29 -4 52 -1 52 6 0 24 -48 35 -95 7 -34 8 -31 3 20 -3 33 -5 85
-4 116 1 35 -7 77 -20 110 -11 30 -19 70 -18 89 1 32 2 31 7 -10 5 -38 7 -30
13 52 3 53 11 105 18 115 9 15 10 14 4 -7 -5 -20 -4 -23 7 -12 7 6 25 12 41
12 15 0 31 8 37 18 9 15 10 15 11 0 0 -25 40 -10 41 16 1 14 3 16 6 5 5 -21
53 -44 53 -27 0 7 17 -14 38 -47 35 -57 37 -65 39 -150 1 -62 -1 -81 -6 -60
-5 17 -9 26 -10 21 0 -5 -8 -44 -17 -86 l-15 -78 27 -52 c27 -51 27 -55 16
-122 -17 -98 -14 -112 9 -43 11 36 17 74 14 95 -4 32 -4 33 6 10 6 -14 8 -48
5 -76 -4 -34 -1 -67 10 -99 15 -41 15 -59 4 -139 -6 -50 -18 -111 -25 -136
-17 -56 -25 -150 -14 -150 5 0 9 10 9 23 0 36 31 121 40 107 4 -7 10 1 14 20
3 18 4 36 1 40 -3 4 7 39 21 76 24 63 26 78 20 164 -5 76 -3 91 6 75 23 -38
28 -128 16 -263 -9 -102 -9 -135 0 -144 9 -9 12 -3 12 26 0 21 7 59 15 85 8
25 19 62 24 81 7 27 9 9 9 -85 0 -66 5 -133 11 -148 6 -16 10 -40 10 -55 l-1
-27 -8 30 -8 30 -1 -30 c0 -16 6 -68 14 -115 20 -114 19 -136 -10 -227 -14
-43 -28 -112 -32 -153 -3 -41 -14 -93 -24 -115 l-19 -40 0 45 c0 25 7 83 15
130 8 46 14 127 14 180 -1 52 1 124 5 160 7 59 5 70 -23 125 l-29 59 -7 -34
c-4 -22 0 -52 10 -80 8 -24 18 -78 20 -120 4 -69 4 -71 -5 -25 -5 28 -14 64
-20 80 -9 28 -9 27 -5 -10 14 -110 17 -243 7 -261 -9 -15 -11 -7 -12 41 0 33
-7 85 -15 115 -8 30 -18 102 -21 160 -7 113 -23 171 -24 85 0 -27 -3 -68 -7
-90 l-6 -40 -13 30 -13 30 -1 -30 c0 -17 9 -63 20 -102 17 -61 19 -95 16 -210
-2 -76 -2 -119 0 -95 3 23 9 42 14 42 5 0 11 8 14 18 3 9 3 -19 1 -63 -2 -44
-11 -98 -19 -120 -8 -22 -17 -71 -21 -110 -4 -38 -17 -88 -28 -110 -13 -25
-21 -65 -24 -110 -2 -38 -8 -84 -14 -102 -5 -17 -9 -48 -8 -70 1 -21 -4 -58
-11 -83 -23 -87 -20 -114 5 -35 13 44 25 91 26 105 1 14 5 0 9 -30 5 -41 7
-46 8 -20 1 19 9 73 17 120 8 47 15 101 15 120 0 19 9 49 20 65 11 17 27 62
35 101 9 39 25 84 36 100 l19 29 0 -26 c0 -14 -7 -48 -15 -75 -8 -27 -15 -58
-15 -69 1 -28 39 80 50 139 5 27 14 54 20 60 8 8 8 3 1 -16 -7 -18 -7 -28 -1
-28 6 0 10 6 10 13 0 7 11 29 25 49 21 30 24 44 19 80 -5 34 1 67 25 141 36
113 38 153 11 262 -11 44 -20 96 -20 116 0 19 -7 57 -16 83 -13 37 -14 56 -6
85 5 20 16 66 23 103 7 37 16 65 21 62 17 -11 41 -70 44 -109 1 -22 -4 -72
-12 -111 -12 -63 -12 -78 2 -130 8 -33 18 -97 21 -143 l6 -84 16 49 16 49 10
-130 c9 -120 11 -126 18 -75 4 30 7 85 7 122 0 37 4 78 9 91 10 27 24 221 14
197 -3 -8 -12 -37 -18 -65 -11 -42 -13 -45 -15 -20 -2 30 -2 29 -16 -10 -13
-39 -14 -38 -11 52 1 50 -1 87 -4 81 -11 -18 -19 54 -13 121 5 50 3 75 -8 97
-28 54 -40 160 -26 223 l12 56 10 -85 c8 -68 11 -79 17 -55 3 17 7 58 8 93 0
35 8 76 16 92 19 37 23 37 18 3 -2 -16 0 -55 5 -88 8 -53 10 -55 11 -20 2 52
17 115 30 128 7 7 10 -21 9 -94 0 -59 4 -115 11 -129 9 -20 10 -13 5 42 -4 40
-1 88 6 120 19 80 27 86 24 16 -3 -59 -2 -60 5 -16 7 46 24 78 36 66 4 -3 2
-30 -3 -58 -6 -32 -6 -65 -1 -84 5 -17 9 -64 8 -104 -1 -40 1 -75 5 -79 7 -7
8 22 11 197 2 123 17 180 53 199 18 10 19 7 15 -37 -2 -26 -7 -58 -11 -72 -7
-29 -9 -171 -2 -164 2 3 8 33 11 67 13 115 46 197 80 197 12 0 19 -42 20 -120
1 -51 4 -65 8 -45 7 30 7 193 2 330 -3 55 -5 64 -11 40 -5 -20 -8 -24 -9 -10
-1 17 -3 17 -11 5 -5 -8 -7 -49 -5 -90 3 -41 3 -70 0 -64 -4 8 -44 10 -128 6
-67 -2 -119 -1 -115 3 5 5 -18 24 -50 44 -52 32 -65 36 -137 38 -44 1 -91 5
-104 9 -21 6 -23 5 -17 -12 4 -10 10 -26 13 -34 4 -13 3 -13 -5 0 -6 8 -36 92
-67 185 -60 177 -112 287 -149 309 -31 20 -96 26 -134 12z m245 -533 c-3 -10
-5 -2 -5 17 0 19 2 27 5 18 2 -10 2 -26 0 -35z m-477 -43 c-11 -22 -23 -40
-25 -40 -3 0 4 18 15 40 11 22 23 40 25 40 3 0 -4 -18 -15 -40z m437 -12 c-2
-13 -4 -5 -4 17 -1 22 1 32 4 23 2 -10 2 -28 0 -40z m50 10 c-3 -8 -6 -5 -6 6
-1 11 2 17 5 13 3 -3 4 -12 1 -19z m72 -63 l0 -20 -8 20 c-4 11 -11 34 -14 50
l-6 30 14 -30 c8 -16 14 -39 14 -50z m-723 -56 c4 -26 -1 -20 -20 26 -31 72
-32 80 -6 39 11 -17 22 -46 26 -65z m741 29 c-3 -8 -6 -5 -6 6 -1 11 2 17 5
13 3 -3 4 -12 1 -19z m-490 -10 c-3 -8 -6 -5 -6 6 -1 11 2 17 5 13 3 -3 4 -12
1 -19z m-40 -30 c-3 -7 -5 -2 -5 12 0 14 2 19 5 13 2 -7 2 -19 0 -25z m673
-15 c-11 -17 -11 -17 -6 0 3 10 7 26 7 35 1 15 2 15 6 0 2 -10 -1 -25 -7 -35z
m117 15 c-3 -8 -6 -5 -6 6 -1 11 2 17 5 13 3 -3 4 -12 1 -19z m-952 -18 c16
-31 21 -81 6 -64 -9 9 -32 94 -25 94 2 0 10 -13 19 -30z m152 -32 c-3 -7 -5
-2 -5 12 0 14 2 19 5 13 2 -7 2 -19 0 -25z m-183 6 c3 -8 2 -12 -4 -9 -6 3
-10 10 -10 16 0 14 7 11 14 -7z m733 -6 c-3 -8 -6 -5 -6 6 -1 11 2 17 5 13 3
-3 4 -12 1 -19z m-484 -98 c2 -47 0 -76 -4 -65 -4 11 -7 56 -7 100 0 96 5 81
11 -35z m594 -2 c-3 -7 -5 -2 -5 12 0 14 2 19 5 13 2 -7 2 -19 0 -25z m-159
-68 l1 -35 -15 40 c-9 23 -12 50 -8 65 l7 25 7 -30 c4 -16 8 -46 8 -65z m100
25 c0 -29 0 -29 -8 -5 -4 14 -8 36 -8 50 -1 23 0 23 8 5 5 -11 8 -33 8 -50z
m-871 -22 c-3 -10 -5 -2 -5 17 0 19 2 27 5 18 2 -10 2 -26 0 -35z m163 -54 c0
-36 7 -87 14 -114 8 -26 13 -60 11 -74 -16 -101 -17 -104 -26 -90 -5 8 -9 37
-9 64 0 28 -5 79 -10 115 -11 72 -2 200 11 178 5 -7 9 -43 9 -79z m777 49 c-3
-8 -6 -5 -6 6 -1 11 2 17 5 13 3 -3 4 -12 1 -19z m-588 -353 c0 -27 -4 -68 -8
-90 -7 -34 -9 -27 -10 45 -1 47 -3 103 -6 125 l-5 40 14 -35 c8 -19 15 -57 15
-85z m-42 -2 c-3 -10 -5 -2 -5 17 0 19 2 27 5 18 2 -10 2 -26 0 -35z m693 -60
c0 -26 -3 -34 -11 -26 -9 9 -3 63 7 63 2 0 4 -17 4 -37z m-826 -301 c10 -35
15 -66 12 -69 -13 -13 -49 95 -52 156 l-4 66 14 -45 c7 -25 21 -74 30 -108z
m757 17 c-9 -23 -10 -23 -10 -2 -1 12 2 30 6 40 6 15 8 15 11 2 1 -8 -2 -26
-7 -40z m-657 -211 c3 -13 5 -45 5 -73 l-1 -50 -10 35 c-16 57 -21 110 -10
110 5 0 12 -10 16 -22z"/>
<path d="M2637 2946 c-16 -24 -55 -35 -144 -42 -54 -4 -83 -30 -88 -80 -4 -37
-4 -38 7 -11 7 15 15 27 19 27 4 0 14 6 21 14 8 7 43 15 81 18 65 4 66 3 53
-17 -15 -24 -28 -80 -19 -89 6 -6 20 14 45 64 31 63 50 82 75 75 22 -5 24 -3
18 17 -16 52 -44 62 -68 24z"/>
<path d="M698 2823 c3 -57 0 -83 -11 -98 -14 -19 -15 -18 -10 8 3 15 3 27 0
27 -3 0 -13 -32 -22 -71 -14 -63 -14 -76 -1 -113 22 -62 29 -99 16 -91 -6 4
-10 -16 -10 -57 0 -35 -4 -68 -9 -74 -16 -16 -41 -116 -41 -164 0 -25 6 -70
14 -100 7 -30 16 -83 20 -118 3 -34 13 -75 21 -90 16 -27 16 -27 10 -2 -10 37
-23 263 -16 280 3 8 11 -16 17 -55 l12 -70 -1 115 c-1 103 10 199 34 285 6 22
8 13 6 -38 -1 -37 1 -67 4 -67 10 0 19 70 19 155 0 67 -4 88 -26 130 -25 45
-26 53 -15 98 15 65 14 149 -2 170 -10 15 -12 4 -9 -60z"/>
<path d="M2702 2878 c-7 -7 -12 -17 -12 -23 0 -6 -15 -29 -33 -51 -19 -21 -37
-52 -41 -67 l-7 -28 31 16 c16 8 30 20 30 27 0 6 16 33 36 60 19 28 33 56 30
64 -7 17 -18 18 -34 2z"/>
<path d="M2745 2820 c-4 -11 -17 -31 -29 -43 -32 -30 -41 -60 -19 -55 20 4 85
86 80 101 -6 20 -25 18 -32 -3z"/>
<path d="M2755 2724 l-50 -45 35 7 c40 8 80 41 80 67 0 25 -10 21 -65 -29z"/>
<path d="M1710 2685 c7 -8 20 -15 28 -15 13 0 12 3 -4 15 -25 19 -40 19 -24 0z"/>
<path d="M1840 2685 c-17 -10 -20 -14 -9 -15 9 0 22 7 29 15 15 18 12 18 -20
0z"/>
<path d="M2791 2493 c-1 -24 4 -43 9 -43 12 0 12 37 0 65 -7 15 -9 10 -9 -22z"/>
<path d="M2790 2419 c0 -11 -4 -18 -8 -15 -9 5 -8 -34 3 -116 3 -27 1 -49 -5
-53 -5 -3 -10 -35 -10 -70 0 -38 -4 -65 -11 -67 -7 -2 -15 -41 -20 -88 -10
-111 -11 -113 -18 -60 l-6 45 -27 -50 -27 -50 -1 55 c0 39 -3 51 -10 40 -5 -8
-10 -56 -10 -107 0 -63 -6 -111 -20 -155 -11 -34 -20 -76 -20 -92 0 -15 -7
-55 -16 -88 -8 -33 -13 -62 -10 -65 7 -8 38 104 45 167 7 54 34 112 80 170
l21 25 1 -55 c1 -54 2 -53 17 35 8 50 21 94 29 98 8 5 13 26 13 52 0 53 15 67
25 22 7 -31 8 -30 22 28 7 33 14 103 15 156 1 98 -7 134 -23 108 -5 -9 -9 19
-9 69 0 48 -4 82 -10 82 -5 0 -10 -9 -10 -21z"/>
<path d="M786 2287 c-10 -46 -17 -101 -17 -123 1 -21 1 -82 1 -134 1 -123 16
-228 46 -311 18 -51 24 -87 24 -152 0 -47 4 -88 9 -92 6 -3 8 16 5 47 -3 29
-2 78 3 108 7 43 5 66 -9 106 -9 28 -20 93 -23 145 l-5 94 34 -72 c42 -86 56
-157 56 -277 0 -50 5 -98 10 -106 17 -27 12 237 -6 300 -27 95 -27 108 2 55
26 -49 57 -157 70 -242 3 -24 10 -43 15 -43 11 0 11 3 -1 36 -6 14 -12 106
-14 203 -3 97 -9 190 -15 206 -8 26 -9 22 -6 -25 4 -47 3 -50 -5 -25 -6 17
-13 64 -17 105 -6 59 -9 69 -14 45 -4 -16 -8 -50 -9 -75 l-3 -45 -8 60 c-5 33
-13 89 -18 125 l-8 65 -2 -88 c-1 -56 -5 -86 -11 -82 -5 3 -10 44 -10 91 0 90
-14 114 -23 39 -2 -26 -7 -49 -11 -52 -15 -15 -21 15 -20 103 0 52 0 94 -1 94
-1 0 -10 -37 -19 -83z"/>
<path d="M1081 2244 c0 -11 3 -14 6 -6 3 7 2 16 -1 19 -3 4 -6 -2 -5 -13z"/>
<path d="M2303 1930 c0 -47 2 -66 4 -42 2 23 2 61 0 85 -2 23 -4 4 -4 -43z"/>
<path d="M2536 1935 c-3 -9 -6 -27 -6 -40 0 -12 -7 -38 -15 -56 l-14 -34 -1
40 -2 40 -9 -30 c-6 -16 -8 -62 -5 -102 5 -61 2 -79 -19 -127 -32 -72 -32 -98
0 -31 22 47 23 48 24 20 1 -16 8 -49 16 -73 12 -34 13 -56 5 -105 -9 -54 -13
-157 -5 -117 24 115 27 175 15 241 -14 72 -13 82 19 319 10 66 8 84 -3 55z"/>
<path d="M1333 1850 c0 -36 2 -50 4 -32 2 17 2 47 0 65 -2 17 -4 3 -4 -33z"/>
<path d="M2037 1834 c-4 -4 -7 -28 -6 -53 l1 -46 9 45 c9 48 8 66 -4 54z"/>
<path d="M2231 1297 c0 -15 -13 -56 -27 -90 -26 -60 -26 -64 -14 -149 8 -52
11 -139 8 -215 -5 -137 2 -128 25 32 13 86 13 112 1 185 -12 75 -12 94 2 157
9 39 14 80 11 90 -3 12 -5 8 -6 -10z"/>
<path d="M2062 793 c-32 -88 -43 -149 -47 -248 l-2 -90 13 80 c7 44 22 100 33
125 12 28 21 73 23 118 2 39 3 72 2 72 -1 0 -11 -26 -22 -57z m-5 -95 c-3 -7
-5 -2 -5 12 0 14 2 19 5 13 2 -7 2 -19 0 -25z"/>
</g>
</svg>
